# xmcd CD database file
#
# Track frame offsets:
#	150
#	18285
#	33602
#	48190
#	65752
#	81785
#	97847
#	113777
#	128687
#	148855
#	161472
#	176422
#	197100
#	213185
#	226822
#	241225
#	258155
#	274055
#	293095
#	313867
#
# Disc length: 4436 seconds
#
# Revision: 0
# Processed by: cddbd v1.4PL0 Copyright (c) Steve Scherf et al.
# Submitted via: CDex 1.50Beta7
#
DISCID=11115214
DTITLE=Various Artist - Sony Music Country Sampler Volume 15
DYEAR=1900
DGENRE=Country
TTITLE0=Commitment
TTITLE1=Little Red Rodeo
TTITLE2=Come Some Rainy Day
TTITLE3=I Can Love You Better
TTITLE4=The Day That She Left Tulsa
TTITLE5=Just between you and Me
TTITLE6=If I Never Stop Loving You
TTITLE7=Bye, Bye
TTITLE8=Leaving October
TTITLE9=She's Gone Gone Gone
TTITLE10=Skip A Stone
TTITLE11=To Have You Back Again
TTITLE12=Just To See You Smile
TTITLE13=Sweet Maryanne
TTITLE14=Show Me A Woman
TTITLE15=Cajun Moon
TTITLE16=Septembers Sweet Child
TTITLE17=City Of New Orleans
TTITLE18=Connected At The Heart
TTITLE19=Another Side
EXTD=
EXTT0=
EXTT1=
EXTT2=
EXTT3=
EXTT4=
EXTT5=
EXTT6=
EXTT7=
EXTT8=
EXTT9=
EXTT10=
EXTT11=
EXTT12=
EXTT13=
EXTT14=
EXTT15=
EXTT16=
EXTT17=
EXTT18=
EXTT19=
PLAYORDER=
